# xmcd
#
# Track frame offsets:
#	150
#	17683
#	56849
#	100951
#	119014
#	149548
#	182688
#	199565
#	222483
#	263463
#	266590
#	296499
#
# Disc length: 4374 seconds
#
# Revision: 1
# Processed by: cddbd v1.5.1PL0 Copyright (c) Steve Scherf et al.
# Submitted via: audiograbber 1.83.01
#
DISCID=ba11140c
DTITLE=Dogskin Suit - Growlin' At The Gator
DYEAR=2001
DGENRE=Blues
TTITLE0=Route 66
TTITLE1=Right Train, Wrong Track (Medley)
TTITLE2=Hey Now and That Will Never Do
TTITLE3=My Next Ex-Wife
TTITLE4=Hit The Road, Jack
TTITLE5=Greater Man
TTITLE6=300 Pounds Of Joy
TTITLE7=Rack 'Em Up
TTITLE8=How Blue Can You Get
TTITLE9=Pissed
TTITLE10=Too Fast To Love
TTITLE11=See Watcha Dun
EXTD=
EXTT0=
EXTT1=
EXTT2=
EXTT3=
EXTT4=
EXTT5=
EXTT6=
EXTT7=
EXTT8=
EXTT9=
EXTT10=
EXTT11=
PLAYORDER=
